<svg width="210" height="202" viewBox="0 0 210 202" fill="none" xmlns="http://www.w3.org/2000/svg">
<g clip-path="url(#clip0_1_65)">
<path d="M126.8 113.928C128.057 116.303 137.072 119.987 144.923 121.293C147.22 121.694 148.866 122.116 148.581 122.244C141.848 125.529 134.429 128.495 137.164 131.468C139.263 133.695 140.347 133.728 144.588 131.546C152.418 127.528 164.995 123.115 170.834 122.31C177.74 121.368 174.99 118.43 164.579 115.643C156.848 113.533 146.468 109.094 138.951 104.595C134.954 102.209 133.278 101.857 133.882 103.521C135.323 107.472 151.089 114.573 155.358 116.542C154.134 116.412 144.605 116.335 134.296 113.103C126.817 110.729 125.233 110.9 126.8 113.928Z" fill="black"/>
<path d="M121.225 110.054C122.927 110.137 121.794 106.593 119.568 104.864C104.571 93.2156 100.629 90.9338 100.673 93.8145C100.737 96.4107 117.856 109.905 121.225 110.054Z" fill="black"/>
<path d="M45.6656 73.4551C56.3952 72.9812 59.3535 74.0446 58.7788 72.0403C57.7773 68.6007 40.0934 66.4155 37.3946 69.398C35.1838 71.8341 39.1794 73.775 45.6656 73.4551Z" fill="black"/>
<path d="M87.9842 89.746C98.7699 97.1227 95.705 90.8315 84.6137 82.2819C74.1859 74.1922 66.6396 70.3158 66.7846 73.0836C66.9101 76.1516 70.8641 78.0469 87.9842 89.746Z" fill="black"/>
</g>
<defs>
<clipPath id="clip0_1_65">
<rect width="154.347" height="150.864" fill="white" transform="matrix(-0.896728 -0.442583 0.468462 -0.883484 138.938 201.778)"/>
</clipPath>
</defs>
</svg>
